# xmcd
#
# Track frame offsets:
#	150
#	24204
#	43844
#	62440
#	83217
#	101482
#	123889
#	142877
#	167415
#	186109
#	207462
#	233168
#
# Disc length: 3374 seconds
#
# Revision: 0
# Processed by: cddbd v1.5.2PL0 Copyright (c) Steve Scherf et al.
# Submitted via: EasyCDDAExtractor 11.0.2.1
#
DISCID=930d2c0c
DTITLE=Chute Nine - Love and Hate (Texas Edition)
DYEAR=2007
DGENRE=Country
TTITLE0=Do You Still Do It
TTITLE1=The Night The Boys Went Out
TTITLE2=Mexican Dog
TTITLE3=TEXAS
TTITLE4=Every Breath You Take
TTITLE5=Chicks
TTITLE6=Hound Dog
TTITLE7=80 Acres
TTITLE8=Call That Girl
TTITLE9=Music American
TTITLE10=Can You Feel That
TTITLE11=Reason Enough
EXTD=
EXTT0=
EXTT1=
EXTT2=
EXTT3=
EXTT4=
EXTT5=
EXTT6=
EXTT7=
EXTT8=
EXTT9=
EXTT10=
EXTT11=
PLAYORDER=
